# Blender 5.0.1
# www.blender.org
mtllib Slash.mtl
o SlashCurve
v -0.747479 0.000000 -0.126148
v -0.765758 0.010940 -0.112432
v -0.801338 0.032170 -0.085735
v -0.825334 0.043691 -0.067729
v -0.849330 0.032517 -0.049724
v -0.884910 0.011634 -0.023027
v -0.903189 0.000000 -0.009311
v -0.656622 0.000000 -0.028017
v -0.677312 0.012472 -0.012188
v -0.717587 0.036674 0.018624
v -0.744749 0.049807 0.039405
v -0.771911 0.037069 0.060185
v -0.812186 0.013263 0.090997
v -0.832876 0.000000 0.106827
v -0.557081 0.000000 0.077753
v -0.579842 0.014003 0.096124
v -0.624148 0.041177 0.131883
v -0.654029 0.055923 0.156000
v -0.683910 0.041621 0.180116
v -0.728215 0.014891 0.215875
v -0.750977 0.000000 0.234246
v -0.451728 0.000000 0.182459
v -0.476003 0.015534 0.203992
v -0.523253 0.045680 0.245908
v -0.555120 0.062039 0.274177
v -0.586987 0.046173 0.302445
v -0.634237 0.016520 0.344361
v -0.658512 0.000000 0.365895
v -0.343990 0.000000 0.277326
v -0.368872 0.017066 0.302854
v -0.417305 0.050183 0.352544
v -0.449969 0.068155 0.386057
v -0.482633 0.050724 0.419569
v -0.531066 0.018148 0.469259
v -0.555948 0.000000 0.494787
v -0.238837 0.000000 0.353235
v -0.262711 0.018597 0.383880
v -0.309182 0.054687 0.443531
v -0.340523 0.074271 0.483760
v -0.371864 0.055276 0.523990
v -0.418335 0.019777 0.583641
v -0.442210 0.000000 0.614286
v -0.144303 0.000000 0.401473
v -0.164124 0.020129 0.438554
v -0.202707 0.059190 0.510731
v -0.228729 0.080387 0.559409
v -0.254750 0.059828 0.608087
v -0.293333 0.021405 0.680265
v -0.313154 0.000000 0.717346
v -0.072766 0.000000 0.417449
v -0.083042 0.021660 0.461512
v -0.103043 0.063693 0.547280
v -0.116532 0.086503 0.605124
v -0.130021 0.064380 0.662968
v -0.150022 0.023034 0.748737
v -0.160298 0.000000 0.792799
v -0.032675 0.000000 0.408438
v -0.026384 0.023192 0.456472
v -0.014139 0.068196 0.549970
v -0.005880 0.092619 0.613026
v 0.002378 0.068932 0.676083
v 0.014624 0.024662 0.769581
v 0.020915 0.000000 0.817615
v 0.018991 0.000000 0.411913
v 0.039057 0.020697 0.450206
v 0.078117 0.060860 0.524745
v 0.104460 0.082656 0.575016
v 0.130802 0.061517 0.625287
v 0.169862 0.022009 0.699826
v 0.189929 0.000000 0.738119
v 0.107948 0.000000 0.372375
v 0.133212 0.018202 0.400790
v 0.182387 0.053525 0.456101
v 0.215552 0.072693 0.493403
v 0.248716 0.054102 0.530705
v 0.297891 0.019357 0.586016
v 0.323155 0.000000 0.614431
v 0.217418 0.000000 0.286961
v 0.242722 0.015708 0.307847
v 0.291976 0.046189 0.348504
v 0.325194 0.062730 0.375923
v 0.358412 0.046687 0.403342
v 0.407667 0.016704 0.443998
v 0.432971 0.000000 0.464885
v 0.333244 0.000000 0.165299
v 0.356239 0.013213 0.180563
v 0.400999 0.038853 0.210273
v 0.431186 0.052767 0.230311
v 0.461373 0.039272 0.250348
v 0.506133 0.014051 0.280059
v 0.529128 0.000000 0.295322
v 0.448072 0.000000 0.017804
v 0.467619 0.010718 0.028721
v 0.505667 0.031517 0.049970
v 0.531327 0.042805 0.064302
v 0.556987 0.031857 0.078633
v 0.595035 0.011398 0.099882
v 0.614582 0.000000 0.110799
v 0.557458 0.000000 -0.146035
v 0.572943 0.008224 -0.138600
v 0.603086 0.024182 -0.124129
v 0.623415 0.032842 -0.114369
v 0.643744 0.024443 -0.104609
v 0.673887 0.008745 -0.090138
v 0.689372 0.000000 -0.082704
v 0.658163 0.000000 -0.317479
v 0.669218 0.005729 -0.312898
v 0.690737 0.016846 -0.303980
v 0.705249 0.022879 -0.297966
v 0.719762 0.017028 -0.291952
v 0.741281 0.006092 -0.283035
v 0.752336 0.000000 -0.278453
v 0.747496 0.000000 -0.488334
v 0.753866 0.003234 -0.486085
v 0.766266 0.009510 -0.481707
v 0.774629 0.012916 -0.478755
v 0.782992 0.009613 -0.475802
v 0.795392 0.003439 -0.471425
v 0.801762 0.000000 -0.469176
v 0.797308 -0.003439 -0.470748
v 0.751950 -0.003234 -0.486761
v -0.765758 -0.010940 -0.112432
v -0.801338 -0.032170 -0.085735
v -0.825334 -0.043691 -0.067729
v -0.849330 -0.032517 -0.049724
v -0.884910 -0.011634 -0.023027
v -0.677312 -0.012472 -0.012188
v -0.717587 -0.036674 0.018624
v -0.744749 -0.049807 0.039405
v -0.771911 -0.037069 0.060185
v -0.812186 -0.013263 0.090997
v -0.579842 -0.014003 0.096124
v -0.624148 -0.041177 0.131883
v -0.654029 -0.055923 0.156000
v -0.683910 -0.041621 0.180116
v -0.728215 -0.014891 0.215875
v -0.476003 -0.015534 0.203992
v -0.523253 -0.045680 0.245908
v -0.555120 -0.062039 0.274177
v -0.586987 -0.046173 0.302445
v -0.634237 -0.016520 0.344361
v -0.368872 -0.017066 0.302854
v -0.417305 -0.050183 0.352544
v -0.449969 -0.068155 0.386057
v -0.482633 -0.050724 0.419569
v -0.531066 -0.018148 0.469259
v -0.262711 -0.018597 0.383880
v -0.309182 -0.054687 0.443531
v -0.340523 -0.074271 0.483760
v -0.371864 -0.055276 0.523990
v -0.418335 -0.019777 0.583641
v -0.164124 -0.020129 0.438554
v -0.202707 -0.059190 0.510731
v -0.228729 -0.080387 0.559409
v -0.254750 -0.059828 0.608087
v -0.293333 -0.021405 0.680265
v -0.083042 -0.021660 0.461512
v -0.103043 -0.063693 0.547280
v -0.116532 -0.086503 0.605124
v -0.130021 -0.064380 0.662968
v -0.150022 -0.023034 0.748737
v -0.026384 -0.023192 0.456472
v -0.014139 -0.068196 0.549970
v -0.005880 -0.092619 0.613026
v 0.002378 -0.068932 0.676083
v 0.014624 -0.024662 0.769581
v 0.039057 -0.020697 0.450206
v 0.078117 -0.060860 0.524745
v 0.104460 -0.082656 0.575016
v 0.130802 -0.061517 0.625287
v 0.169862 -0.022009 0.699826
v 0.133212 -0.018202 0.400790
v 0.182387 -0.053525 0.456101
v 0.215552 -0.072693 0.493403
v 0.248716 -0.054102 0.530705
v 0.297891 -0.019357 0.586016
v 0.242722 -0.015708 0.307847
v 0.291976 -0.046189 0.348504
v 0.325194 -0.062730 0.375923
v 0.358412 -0.046687 0.403342
v 0.407667 -0.016704 0.443998
v 0.356239 -0.013213 0.180563
v 0.400999 -0.038853 0.210273
v 0.431186 -0.052767 0.230311
v 0.461373 -0.039272 0.250348
v 0.506133 -0.014051 0.280059
v 0.467619 -0.010718 0.028721
v 0.505667 -0.031517 0.049970
v 0.531327 -0.042805 0.064302
v 0.556987 -0.031857 0.078633
v 0.595035 -0.011398 0.099882
v 0.572943 -0.008224 -0.138600
v 0.603086 -0.024182 -0.124129
v 0.623415 -0.032842 -0.114369
v 0.643744 -0.024443 -0.104609
v 0.673887 -0.008745 -0.090138
v 0.669218 -0.005729 -0.312898
v 0.690737 -0.016846 -0.303980
v 0.705249 -0.022879 -0.297966
v 0.719762 -0.017028 -0.291952
v 0.741281 -0.006092 -0.283035
v 0.753866 -0.003234 -0.486085
v 0.766266 -0.009510 -0.481707
v 0.774629 -0.012916 -0.478755
v 0.782992 -0.009613 -0.475802
v 0.795392 -0.003439 -0.471425
v 0.797308 0.003439 -0.470748
v 0.751950 0.003234 -0.486761
vn 0.7338 -0.0000 -0.6793
vn 0.3177 0.9014 -0.2941
vn 0.2889 0.9181 -0.2715
vn -0.0236 0.9990 -0.0392
vn -0.3351 0.9212 0.1979
vn -0.3773 0.8976 0.2278
vn -0.8555 -0.0000 0.5178
vn 0.7310 -0.0000 -0.6824
vn 0.3165 0.9015 -0.2952
vn 0.2880 0.9181 -0.2724
vn -0.0240 0.9991 -0.0364
vn -0.3327 0.9210 0.2027
vn -0.3747 0.8974 0.2331
vn -0.8481 -0.0000 0.5298
vn 0.7163 -0.0000 -0.6978
vn 0.3102 0.9016 -0.3014
vn 0.2823 0.9183 -0.2777
vn -0.0248 0.9992 -0.0320
vn -0.3256 0.9210 0.2138
vn -0.3665 0.8974 0.2455
vn -0.8295 -0.0000 0.5584
vn 0.6825 -0.0000 -0.7309
vn 0.2959 0.9016 -0.3154
vn 0.2692 0.9184 -0.2900
vn -0.0276 0.9992 -0.0286
vn -0.3148 0.9209 0.2297
vn -0.3539 0.8974 0.2635
vn -0.8002 -0.0000 0.5997
vn 0.6226 -0.0000 -0.7826
vn 0.2707 0.9016 -0.3373
vn 0.2461 0.9185 -0.3094
vn -0.0328 0.9992 -0.0246
vn -0.2979 0.9207 0.2521
vn -0.3338 0.8973 0.2889
vn -0.7534 -0.0000 0.6576
vn 0.5193 -0.0000 -0.8546
vn 0.2276 0.9016 -0.3679
vn 0.2071 0.9187 -0.3362
vn -0.0407 0.9990 -0.0180
vn -0.2697 0.9203 0.2834
vn -0.3002 0.8970 0.3243
vn -0.6745 -0.0000 0.7382
vn 0.3358 -0.0000 -0.9419
vn 0.1527 0.9015 -0.4050
vn 0.1407 0.9190 -0.3683
vn -0.0509 0.9987 -0.0048
vn -0.2193 0.9197 0.3258
vn -0.2402 0.8967 0.3717
vn -0.5344 -0.0000 0.8452
vn 0.0012 -0.0000 -1.0000
vn 0.0232 0.9013 -0.4326
vn 0.0310 0.9195 -0.3920
vn -0.0573 0.9982 0.0197
vn -0.1282 0.9192 0.3723
vn -0.1339 0.8967 0.4219
vn -0.2896 -0.0000 0.9572
vn -0.0811 -0.0000 -0.9967
vn -0.0364 0.8952 -0.4443
vn -0.0354 0.9158 -0.4002
vn 0.0182 0.9995 0.0269
vn 0.0616 0.9236 0.3784
vn 0.0670 0.9009 0.4289
vn 0.1484 -0.0000 0.9889
vn -0.1653 -0.0000 -0.9862
vn -0.1017 0.8998 -0.4243
vn -0.1030 0.9184 -0.3821
vn 0.0832 0.9965 -0.0070
vn 0.2373 0.9177 0.3186
vn 0.2542 0.8954 0.3656
vn 0.5546 -0.0000 0.8321
vn -0.5088 -0.0000 -0.8609
vn -0.2285 0.9007 -0.3695
vn -0.2085 0.9182 -0.3367
vn 0.0617 0.9976 -0.0305
vn 0.3030 0.9186 0.2536
vn 0.3345 0.8957 0.2931
vn 0.7440 -0.0000 0.6682
vn -0.6686 -0.0000 -0.7437
vn -0.2927 0.9010 -0.3201
vn -0.2658 0.9182 -0.2938
vn 0.0447 0.9982 -0.0388
vn 0.3341 0.9196 0.2066
vn 0.3734 0.8963 0.2393
vn 0.8380 -0.0000 0.5457
vn -0.7559 -0.0000 -0.6547
vn -0.3289 0.9012 -0.2822
vn -0.2990 0.9181 -0.2602
vn 0.0338 0.9986 -0.0414
vn 0.3510 0.9202 0.1735
vn 0.3942 0.8967 0.2012
vn 0.8885 -0.0000 0.4588
vn -0.8098 -0.0000 -0.5867
vn -0.3516 0.9013 -0.2531
vn -0.3199 0.9181 -0.2340
vn 0.0271 0.9987 -0.0426
vn 0.3619 0.9204 0.1478
vn 0.4074 0.8969 0.1718
vn 0.9199 -0.0000 0.3921
vn -0.8465 -0.0000 -0.5324
vn -0.3672 0.9013 -0.2298
vn -0.3344 0.9180 -0.2129
vn 0.0228 0.9988 -0.0439
vn 0.3698 0.9206 0.1257
vn 0.4169 0.8970 0.1467
vn 0.9422 -0.0000 0.3349
vn -0.8738 -0.0000 -0.4863
vn -0.3790 0.9013 -0.2100
vn -0.3453 0.9180 -0.1951
vn 0.0204 0.9987 -0.0461
vn 0.3765 0.9205 0.1043
vn 0.4248 0.8970 0.1226
vn 0.9599 -0.0000 0.2802
vn -0.8862 -0.0000 -0.4632
vn -0.3841 0.9012 -0.2007
vn -0.3497 0.9181 -0.1865
vn 0.0195 0.9987 -0.0475
vn 0.3792 0.9206 0.0933
vn 0.4277 0.8972 0.1102
vn 0.9681 -0.0000 0.2507
vn 0.3177 -0.9014 -0.2941
vn 0.2889 -0.9181 -0.2715
vn -0.0236 -0.9990 -0.0392
vn -0.3351 -0.9212 0.1979
vn -0.3773 -0.8976 0.2278
vn 0.3165 -0.9015 -0.2952
vn 0.2880 -0.9181 -0.2724
vn -0.0240 -0.9991 -0.0364
vn -0.3327 -0.9210 0.2027
vn -0.3747 -0.8974 0.2331
vn 0.3102 -0.9016 -0.3014
vn 0.2823 -0.9183 -0.2777
vn -0.0248 -0.9992 -0.0320
vn -0.3256 -0.9210 0.2138
vn -0.3665 -0.8974 0.2455
vn 0.2959 -0.9016 -0.3154
vn 0.2692 -0.9184 -0.2900
vn -0.0276 -0.9992 -0.0286
vn -0.3148 -0.9209 0.2297
vn -0.3539 -0.8974 0.2635
vn 0.2707 -0.9016 -0.3373
vn 0.2461 -0.9185 -0.3094
vn -0.0328 -0.9992 -0.0246
vn -0.2979 -0.9207 0.2521
vn -0.3338 -0.8973 0.2889
vn 0.2276 -0.9016 -0.3679
vn 0.2071 -0.9187 -0.3362
vn -0.0407 -0.9990 -0.0180
vn -0.2697 -0.9203 0.2834
vn -0.3002 -0.8970 0.3243
vn 0.1527 -0.9015 -0.4050
vn 0.1407 -0.9190 -0.3683
vn -0.0509 -0.9987 -0.0048
vn -0.2193 -0.9197 0.3258
vn -0.2402 -0.8967 0.3717
vn 0.0232 -0.9013 -0.4326
vn 0.0310 -0.9195 -0.3920
vn -0.0573 -0.9982 0.0197
vn -0.1282 -0.9192 0.3723
vn -0.1339 -0.8967 0.4219
vn -0.0364 -0.8952 -0.4443
vn -0.0354 -0.9158 -0.4002
vn 0.0182 -0.9995 0.0269
vn 0.0616 -0.9236 0.3784
vn 0.0670 -0.9009 0.4289
vn -0.1017 -0.8998 -0.4243
vn -0.1030 -0.9184 -0.3821
vn 0.0832 -0.9965 -0.0070
vn 0.2373 -0.9177 0.3186
vn 0.2542 -0.8954 0.3656
vn -0.2285 -0.9007 -0.3695
vn -0.2085 -0.9182 -0.3367
vn 0.0617 -0.9976 -0.0305
vn 0.3030 -0.9186 0.2536
vn 0.3345 -0.8957 0.2931
vn -0.2927 -0.9010 -0.3201
vn -0.2658 -0.9182 -0.2938
vn 0.0447 -0.9982 -0.0388
vn 0.3341 -0.9196 0.2066
vn 0.3734 -0.8963 0.2393
vn -0.3289 -0.9012 -0.2822
vn -0.2990 -0.9181 -0.2602
vn 0.0338 -0.9986 -0.0414
vn 0.3510 -0.9202 0.1735
vn 0.3942 -0.8967 0.2012
vn -0.3516 -0.9013 -0.2531
vn -0.3199 -0.9181 -0.2340
vn 0.0271 -0.9987 -0.0426
vn 0.3619 -0.9204 0.1478
vn 0.4074 -0.8969 0.1718
vn -0.3672 -0.9013 -0.2298
vn -0.3344 -0.9180 -0.2129
vn 0.0228 -0.9988 -0.0439
vn 0.3698 -0.9206 0.1257
vn 0.4169 -0.8970 0.1467
vn -0.3790 -0.9013 -0.2100
vn -0.3453 -0.9180 -0.1951
vn 0.0204 -0.9987 -0.0461
vn 0.3765 -0.9205 0.1043
vn 0.4248 -0.8970 0.1226
vn -0.3841 -0.9012 -0.2007
vn -0.3497 -0.9181 -0.1865
vn 0.0195 -0.9987 -0.0475
vn 0.3792 -0.9206 0.0933
vn 0.4277 -0.8972 0.1102
vt 0.008670 0.256321
vt 0.069711 0.256321
vt 0.069711 0.175428
vt 0.008670 0.175428
vt 0.008670 0.337213
vt 0.069711 0.337213
vt 0.008670 0.418106
vt 0.069711 0.418106
vt 0.008670 0.498999
vt 0.069711 0.498999
vt 0.008670 0.579892
vt 0.069711 0.579892
vt 0.008670 0.660785
vt 0.069711 0.660785
vt 0.130752 0.256321
vt 0.130752 0.175428
vt 0.130752 0.337213
vt 0.130752 0.418106
vt 0.130752 0.498999
vt 0.130752 0.579892
vt 0.130752 0.660785
vt 0.191793 0.256321
vt 0.191793 0.175428
vt 0.191793 0.337213
vt 0.191793 0.418106
vt 0.191793 0.498999
vt 0.191793 0.579892
vt 0.191793 0.660785
vt 0.252834 0.256321
vt 0.252834 0.175428
vt 0.252834 0.337213
vt 0.252834 0.418106
vt 0.252834 0.498999
vt 0.252834 0.579892
vt 0.252834 0.660785
vt 0.313874 0.256321
vt 0.313874 0.175428
vt 0.313874 0.337213
vt 0.313874 0.418106
vt 0.313874 0.498999
vt 0.313874 0.579892
vt 0.313874 0.660785
vt 0.374915 0.256321
vt 0.374915 0.175428
vt 0.374915 0.337213
vt 0.374915 0.418106
vt 0.374915 0.498999
vt 0.374915 0.579892
vt 0.374915 0.660785
vt 0.435956 0.256321
vt 0.435956 0.175428
vt 0.435956 0.337213
vt 0.435956 0.418106
vt 0.435956 0.498999
vt 0.435956 0.579892
vt 0.435956 0.660785
vt 0.496997 0.256321
vt 0.496997 0.175428
vt 0.496997 0.337213
vt 0.496997 0.418106
vt 0.496997 0.498999
vt 0.496997 0.579892
vt 0.496997 0.660785
vt 0.558038 0.256321
vt 0.558038 0.175428
vt 0.558038 0.337213
vt 0.558038 0.418106
vt 0.558038 0.498999
vt 0.558038 0.579892
vt 0.558038 0.660785
vt 0.619079 0.256321
vt 0.619079 0.175428
vt 0.619079 0.337213
vt 0.619079 0.418106
vt 0.619079 0.498999
vt 0.619079 0.579892
vt 0.619079 0.660785
vt 0.680120 0.256321
vt 0.680120 0.175428
vt 0.680120 0.337213
vt 0.680120 0.418106
vt 0.680120 0.498999
vt 0.680120 0.579892
vt 0.680120 0.660785
vt 0.741161 0.256321
vt 0.741161 0.175428
vt 0.741161 0.337213
vt 0.741161 0.418106
vt 0.741161 0.498999
vt 0.741161 0.579892
vt 0.741161 0.660785
vt 0.802201 0.256321
vt 0.802201 0.175428
vt 0.802201 0.337213
vt 0.802201 0.418106
vt 0.802201 0.498999
vt 0.802201 0.579892
vt 0.802201 0.660785
vt 0.863242 0.256321
vt 0.863242 0.175428
vt 0.863242 0.337213
vt 0.863242 0.418106
vt 0.863242 0.498999
vt 0.863242 0.579892
vt 0.863242 0.660785
vt 0.924283 0.256321
vt 0.924283 0.175428
vt 0.924283 0.337213
vt 0.924283 0.418106
vt 0.924283 0.498999
vt 0.924283 0.579892
vt 0.924283 0.660785
vt 0.985324 0.256321
vt 0.985324 0.175428
vt 0.985324 0.337213
vt 0.985324 0.418106
vt 0.985324 0.498999
vt 0.985324 0.579892
vt 0.985324 0.660785
vt 0.008670 0.094535
vt 0.069711 0.094535
vt 0.008670 0.013642
vt 0.069711 0.013642
vt 0.008670 0.903463
vt 0.008670 0.984356
vt 0.069711 0.984356
vt 0.069711 0.903463
vt 0.008670 0.822570
vt 0.069711 0.822570
vt 0.008670 0.741677
vt 0.069711 0.741677
vt 0.130752 0.094535
vt 0.130752 0.013642
vt 0.130752 0.984356
vt 0.130752 0.903463
vt 0.130752 0.822570
vt 0.130752 0.741677
vt 0.191793 0.094535
vt 0.191793 0.013642
vt 0.191793 0.984356
vt 0.191793 0.903463
vt 0.191793 0.822570
vt 0.191793 0.741677
vt 0.252834 0.094535
vt 0.252834 0.013642
vt 0.252834 0.984356
vt 0.252834 0.903463
vt 0.252834 0.822570
vt 0.252834 0.741677
vt 0.313874 0.094535
vt 0.313874 0.013642
vt 0.313874 0.984356
vt 0.313874 0.903463
vt 0.313874 0.822570
vt 0.313874 0.741677
vt 0.374915 0.094535
vt 0.374915 0.013642
vt 0.374915 0.984356
vt 0.374915 0.903463
vt 0.374915 0.822570
vt 0.374915 0.741677
vt 0.435956 0.094535
vt 0.435956 0.013642
vt 0.435956 0.984356
vt 0.435956 0.903463
vt 0.435956 0.822570
vt 0.435956 0.741677
vt 0.496997 0.094535
vt 0.496997 0.013642
vt 0.496997 0.984356
vt 0.496997 0.903463
vt 0.496997 0.822570
vt 0.496997 0.741677
vt 0.558038 0.094535
vt 0.558038 0.013642
vt 0.558038 0.984356
vt 0.558038 0.903463
vt 0.558038 0.822570
vt 0.558038 0.741677
vt 0.619079 0.094535
vt 0.619079 0.013642
vt 0.619079 0.984356
vt 0.619079 0.903463
vt 0.619079 0.822570
vt 0.619079 0.741677
vt 0.680120 0.094535
vt 0.680120 0.013642
vt 0.680120 0.984356
vt 0.680120 0.903463
vt 0.680120 0.822570
vt 0.680120 0.741677
vt 0.741161 0.094535
vt 0.741161 0.013642
vt 0.741161 0.984356
vt 0.741161 0.903463
vt 0.741161 0.822570
vt 0.741161 0.741677
vt 0.802201 0.094535
vt 0.802201 0.013642
vt 0.802201 0.984356
vt 0.802201 0.903463
vt 0.802201 0.822570
vt 0.802201 0.741677
vt 0.863242 0.094535
vt 0.863242 0.013642
vt 0.863242 0.984356
vt 0.863242 0.903463
vt 0.863242 0.822570
vt 0.863242 0.741677
vt 0.924283 0.094535
vt 0.924283 0.013642
vt 0.924283 0.984356
vt 0.924283 0.903463
vt 0.924283 0.822570
vt 0.924283 0.741677
vt 0.985324 0.094535
vt 0.985324 0.013642
vt 0.985324 0.984356
vt 0.985324 0.903463
vt 0.985324 0.822570
vt 0.985324 0.741677
s 1
f 2/1/2 9/2/9 8/3/8 1/4/1
f 3/5/3 10/6/10 9/2/9 2/1/2
f 4/7/4 11/8/11 10/6/10 3/5/3
f 5/9/5 12/10/12 11/8/11 4/7/4
f 6/11/6 13/12/13 12/10/12 5/9/5
f 7/13/7 14/14/14 13/12/13 6/11/6
f 9/2/9 16/15/16 15/16/15 8/3/8
f 10/6/10 17/17/17 16/15/16 9/2/9
f 11/8/11 18/18/18 17/17/17 10/6/10
f 12/10/12 19/19/19 18/18/18 11/8/11
f 13/12/13 20/20/20 19/19/19 12/10/12
f 14/14/14 21/21/21 20/20/20 13/12/13
f 16/15/16 23/22/23 22/23/22 15/16/15
f 17/17/17 24/24/24 23/22/23 16/15/16
f 18/18/18 25/25/25 24/24/24 17/17/17
f 19/19/19 26/26/26 25/25/25 18/18/18
f 20/20/20 27/27/27 26/26/26 19/19/19
f 21/21/21 28/28/28 27/27/27 20/20/20
f 23/22/23 30/29/30 29/30/29 22/23/22
f 24/24/24 31/31/31 30/29/30 23/22/23
f 25/25/25 32/32/32 31/31/31 24/24/24
f 26/26/26 33/33/33 32/32/32 25/25/25
f 27/27/27 34/34/34 33/33/33 26/26/26
f 28/28/28 35/35/35 34/34/34 27/27/27
f 30/29/30 37/36/37 36/37/36 29/30/29
f 31/31/31 38/38/38 37/36/37 30/29/30
f 32/32/32 39/39/39 38/38/38 31/31/31
f 33/33/33 40/40/40 39/39/39 32/32/32
f 34/34/34 41/41/41 40/40/40 33/33/33
f 35/35/35 42/42/42 41/41/41 34/34/34
f 37/36/37 44/43/44 43/44/43 36/37/36
f 38/38/38 45/45/45 44/43/44 37/36/37
f 39/39/39 46/46/46 45/45/45 38/38/38
f 40/40/40 47/47/47 46/46/46 39/39/39
f 41/41/41 48/48/48 47/47/47 40/40/40
f 42/42/42 49/49/49 48/48/48 41/41/41
f 44/43/44 51/50/51 50/51/50 43/44/43
f 45/45/45 52/52/52 51/50/51 44/43/44
f 46/46/46 53/53/53 52/52/52 45/45/45
f 47/47/47 54/54/54 53/53/53 46/46/46
f 48/48/48 55/55/55 54/54/54 47/47/47
f 49/49/49 56/56/56 55/55/55 48/48/48
f 51/50/51 58/57/58 57/58/57 50/51/50
f 52/52/52 59/59/59 58/57/58 51/50/51
f 53/53/53 60/60/60 59/59/59 52/52/52
f 54/54/54 61/61/61 60/60/60 53/53/53
f 55/55/55 62/62/62 61/61/61 54/54/54
f 56/56/56 63/63/63 62/62/62 55/55/55
f 58/57/58 65/64/65 64/65/64 57/58/57
f 59/59/59 66/66/66 65/64/65 58/57/58
f 60/60/60 67/67/67 66/66/66 59/59/59
f 61/61/61 68/68/68 67/67/67 60/60/60
f 62/62/62 69/69/69 68/68/68 61/61/61
f 63/63/63 70/70/70 69/69/69 62/62/62
f 65/64/65 72/71/72 71/72/71 64/65/64
f 66/66/66 73/73/73 72/71/72 65/64/65
f 67/67/67 74/74/74 73/73/73 66/66/66
f 68/68/68 75/75/75 74/74/74 67/67/67
f 69/69/69 76/76/76 75/75/75 68/68/68
f 70/70/70 77/77/77 76/76/76 69/69/69
f 72/71/72 79/78/79 78/79/78 71/72/71
f 73/73/73 80/80/80 79/78/79 72/71/72
f 74/74/74 81/81/81 80/80/80 73/73/73
f 75/75/75 82/82/82 81/81/81 74/74/74
f 76/76/76 83/83/83 82/82/82 75/75/75
f 77/77/77 84/84/84 83/83/83 76/76/76
f 79/78/79 86/85/86 85/86/85 78/79/78
f 80/80/80 87/87/87 86/85/86 79/78/79
f 81/81/81 88/88/88 87/87/87 80/80/80
f 82/82/82 89/89/89 88/88/88 81/81/81
f 83/83/83 90/90/90 89/89/89 82/82/82
f 84/84/84 91/91/91 90/90/90 83/83/83
f 86/85/86 93/92/93 92/93/92 85/86/85
f 87/87/87 94/94/94 93/92/93 86/85/86
f 88/88/88 95/95/95 94/94/94 87/87/87
f 89/89/89 96/96/96 95/95/95 88/88/88
f 90/90/90 97/97/97 96/96/96 89/89/89
f 91/91/91 98/98/98 97/97/97 90/90/90
f 93/92/93 100/99/100 99/100/99 92/93/92
f 94/94/94 101/101/101 100/99/100 93/92/93
f 95/95/95 102/102/102 101/101/101 94/94/94
f 96/96/96 103/103/103 102/102/102 95/95/95
f 97/97/97 104/104/104 103/103/103 96/96/96
f 98/98/98 105/105/105 104/104/104 97/97/97
f 100/99/100 107/106/107 106/107/106 99/100/99
f 101/101/101 108/108/108 107/106/107 100/99/100
f 102/102/102 109/109/109 108/108/108 101/101/101
f 103/103/103 110/110/110 109/109/109 102/102/102
f 104/104/104 111/111/111 110/110/110 103/103/103
f 105/105/105 112/112/112 111/111/111 104/104/104
f 107/106/107 114/113/114 113/114/113 106/107/106
f 108/108/108 115/115/115 114/113/114 107/106/107
f 109/109/109 116/116/116 115/115/115 108/108/108
f 110/110/110 117/117/117 116/116/116 109/109/109
f 111/111/111 118/118/118 117/117/117 110/110/110
f 112/112/112 119/119/119 118/118/118 111/111/111
f 122/120/120 1/4/1 8/3/8 127/121/125
f 123/122/121 122/120/120 127/121/125 128/123/126
f 124/124/122 123/125/121 128/126/126 129/127/127
f 125/128/123 124/124/122 129/127/127 130/129/128
f 126/130/124 125/128/123 130/129/128 131/131/129
f 7/13/7 126/130/124 131/131/129 14/14/14
f 127/121/125 8/3/8 15/16/15 132/132/130
f 128/123/126 127/121/125 132/132/130 133/133/131
f 129/127/127 128/126/126 133/134/131 134/135/132
f 130/129/128 129/127/127 134/135/132 135/136/133
f 131/131/129 130/129/128 135/136/133 136/137/134
f 14/14/14 131/131/129 136/137/134 21/21/21
f 132/132/130 15/16/15 22/23/22 137/138/135
f 133/133/131 132/132/130 137/138/135 138/139/136
f 134/135/132 133/134/131 138/140/136 139/141/137
f 135/136/133 134/135/132 139/141/137 140/142/138
f 136/137/134 135/136/133 140/142/138 141/143/139
f 21/21/21 136/137/134 141/143/139 28/28/28
f 137/138/135 22/23/22 29/30/29 142/144/140
f 138/139/136 137/138/135 142/144/140 143/145/141
f 139/141/137 138/140/136 143/146/141 144/147/142
f 140/142/138 139/141/137 144/147/142 145/148/143
f 141/143/139 140/142/138 145/148/143 146/149/144
f 28/28/28 141/143/139 146/149/144 35/35/35
f 142/144/140 29/30/29 36/37/36 147/150/145
f 143/145/141 142/144/140 147/150/145 148/151/146
f 144/147/142 143/146/141 148/152/146 149/153/147
f 145/148/143 144/147/142 149/153/147 150/154/148
f 146/149/144 145/148/143 150/154/148 151/155/149
f 35/35/35 146/149/144 151/155/149 42/42/42
f 147/150/145 36/37/36 43/44/43 152/156/150
f 148/151/146 147/150/145 152/156/150 153/157/151
f 149/153/147 148/152/146 153/158/151 154/159/152
f 150/154/148 149/153/147 154/159/152 155/160/153
f 151/155/149 150/154/148 155/160/153 156/161/154
f 42/42/42 151/155/149 156/161/154 49/49/49
f 152/156/150 43/44/43 50/51/50 157/162/155
f 153/157/151 152/156/150 157/162/155 158/163/156
f 154/159/152 153/158/151 158/164/156 159/165/157
f 155/160/153 154/159/152 159/165/157 160/166/158
f 156/161/154 155/160/153 160/166/158 161/167/159
f 49/49/49 156/161/154 161/167/159 56/56/56
f 157/162/155 50/51/50 57/58/57 162/168/160
f 158/163/156 157/162/155 162/168/160 163/169/161
f 159/165/157 158/164/156 163/170/161 164/171/162
f 160/166/158 159/165/157 164/171/162 165/172/163
f 161/167/159 160/166/158 165/172/163 166/173/164
f 56/56/56 161/167/159 166/173/164 63/63/63
f 162/168/160 57/58/57 64/65/64 167/174/165
f 163/169/161 162/168/160 167/174/165 168/175/166
f 164/171/162 163/170/161 168/176/166 169/177/167
f 165/172/163 164/171/162 169/177/167 170/178/168
f 166/173/164 165/172/163 170/178/168 171/179/169
f 63/63/63 166/173/164 171/179/169 70/70/70
f 167/174/165 64/65/64 71/72/71 172/180/170
f 168/175/166 167/174/165 172/180/170 173/181/171
f 169/177/167 168/176/166 173/182/171 174/183/172
f 170/178/168 169/177/167 174/183/172 175/184/173
f 171/179/169 170/178/168 175/184/173 176/185/174
f 70/70/70 171/179/169 176/185/174 77/77/77
f 172/180/170 71/72/71 78/79/78 177/186/175
f 173/181/171 172/180/170 177/186/175 178/187/176
f 174/183/172 173/182/171 178/188/176 179/189/177
f 175/184/173 174/183/172 179/189/177 180/190/178
f 176/185/174 175/184/173 180/190/178 181/191/179
f 77/77/77 176/185/174 181/191/179 84/84/84
f 177/186/175 78/79/78 85/86/85 182/192/180
f 178/187/176 177/186/175 182/192/180 183/193/181
f 179/189/177 178/188/176 183/194/181 184/195/182
f 180/190/178 179/189/177 184/195/182 185/196/183
f 181/191/179 180/190/178 185/196/183 186/197/184
f 84/84/84 181/191/179 186/197/184 91/91/91
f 182/192/180 85/86/85 92/93/92 187/198/185
f 183/193/181 182/192/180 187/198/185 188/199/186
f 184/195/182 183/194/181 188/200/186 189/201/187
f 185/196/183 184/195/182 189/201/187 190/202/188
f 186/197/184 185/196/183 190/202/188 191/203/189
f 91/91/91 186/197/184 191/203/189 98/98/98
f 187/198/185 92/93/92 99/100/99 192/204/190
f 188/199/186 187/198/185 192/204/190 193/205/191
f 189/201/187 188/200/186 193/206/191 194/207/192
f 190/202/188 189/201/187 194/207/192 195/208/193
f 191/203/189 190/202/188 195/208/193 196/209/194
f 98/98/98 191/203/189 196/209/194 105/105/105
f 192/204/190 99/100/99 106/107/106 197/210/195
f 193/205/191 192/204/190 197/210/195 198/211/196
f 194/207/192 193/206/191 198/212/196 199/213/197
f 195/208/193 194/207/192 199/213/197 200/214/198
f 196/209/194 195/208/193 200/214/198 201/215/199
f 105/105/105 196/209/194 201/215/199 112/112/112
f 197/210/195 106/107/106 113/114/113 202/216/200
f 198/211/196 197/210/195 202/216/200 203/217/201
f 199/213/197 198/212/196 203/218/201 204/219/202
f 200/214/198 199/213/197 204/219/202 205/220/203
f 201/215/199 200/214/198 205/220/203 206/221/204
f 112/112/112 201/215/199 206/221/204 119/119/119
l 113 121
l 119 120
l 113 208
l 119 207
